<svg xmlns="http://www.w3.org/2000/svg" width="17.755" height="21.347" viewBox="0 0 17.755 21.347"><defs></defs><g transform="translate(-126.4 -7.2)"><path class="a" d="M143.3,409.6H127.251a.843.843,0,0,0-.851.851v11.082a.843.843,0,0,0,.851.851H143.3a.843.843,0,0,0,.851-.851V410.451A.854.854,0,0,0,143.3,409.6Zm-6.741,6.5v1.6a1.294,1.294,0,0,1-2.587,0v-1.6a1.84,1.84,0,1,1,3.149-1.294A1.855,1.855,0,0,1,136.563,416.1Z" transform="translate(0 -393.837)"/><path class="a" d="M287.762,16.971H286.4V12.886a5.686,5.686,0,0,1,11.371,0V13.8h-1.362v-.919a4.324,4.324,0,0,0-8.648,0v4.086Z" transform="translate(-156.595)"/><path class="a" d="M756,287.081a.681.681,0,1,0,.681-.681A.681.681,0,0,0,756,287.081Z" transform="translate(-616.203 -273.259)"/></g></svg>
